<svg width="71" height="63" viewBox="0 0 91 83" fill="none" xmlns="http://www.w3.org/2000/svg">
<g clip-path="url(#clip0_2_53)">
<path d="M25.2923 56.2737L26.4364 56.1247C25.9132 55.4103 25.4582 54.6566 25.0714 53.8625C23.5131 54.4128 21.5727 55.3869 20.5897 56.9844C18.818 59.8831 20.3319 63.5122 20.347 63.5487C20.3565 63.5712 20.3641 63.5937 20.3688 63.6172H28.9513L37.4939 62.045C37.711 62.0103 37.9224 61.9559 38.129 61.8809C38.3347 61.8059 38.5319 61.7112 38.7186 61.5978C38.9063 61.4844 39.0807 61.3541 39.2419 61.2069C39.403 61.0587 39.548 60.8975 39.6779 60.7222C39.8068 60.5459 39.9177 60.3594 40.0097 60.1625C40.1016 59.9647 40.1727 59.7603 40.2239 59.5494C40.276 59.3384 40.3054 59.1237 40.3139 58.9072C40.3234 58.6897 40.3102 58.4741 40.276 58.2594C40.2419 58.0447 40.186 57.8356 40.1101 57.6312C40.0343 57.4278 39.9386 57.2328 39.8239 57.0481C39.7092 56.8625 39.5774 56.69 39.4286 56.5306C39.2798 56.3712 39.1158 56.2269 38.9385 56.0994C38.7603 55.9719 38.5717 55.8622 38.3726 55.7712C38.1726 55.6803 37.966 55.6091 37.7527 55.5584C37.5394 55.5078 37.3223 55.4778 37.1034 55.4694C36.8834 55.4609 36.6654 55.4741 36.4483 55.5078L25.3928 56.9403C25.3492 56.9431 25.3065 56.9375 25.2648 56.9244C25.2231 56.9112 25.1852 56.8906 25.152 56.8625C25.1179 56.8353 25.0904 56.8025 25.0696 56.765C25.0487 56.7266 25.0345 56.6862 25.0288 56.6441C25.0231 56.6009 25.0259 56.5578 25.0364 56.5166C25.0477 56.4744 25.0658 56.4359 25.0904 56.4003C25.116 56.3656 25.1473 56.3356 25.1842 56.3122C25.2212 56.2887 25.261 56.2728 25.3037 56.2644L25.2923 56.2737Z" fill="#6D6E71"/>
<path d="M51.5079 8.55124H32.0595L26.936 37.2631H56.6295L51.5079 8.55124Z" fill="#ED1C24"/>
<path d="M27.5844 34.3672L27.101 37.0672H56.7954L51.6728 8.36469H50.6614L54.5848 34.8134C54.5848 34.8134 36.7327 34.2331 27.5844 34.3672Z" fill="#D30F1E"/>
<path d="M25.5748 53.3309C25.9994 54.2422 26.517 55.1 27.1256 55.9025C27.1531 55.9391 27.172 55.9784 27.1834 56.0225L33.5904 55.1919C33.5752 55.1647 33.5562 55.1384 33.5439 55.1113C32.7837 53.5953 33.0605 51.755 34.2008 50.7359C35.1876 49.8547 36.5782 49.7113 37.6797 49.685H38.274C39.2437 49.6766 40.1585 49.6691 40.9964 49.3475C41.9254 48.9931 42.7586 48.0613 42.5605 47.1106C42.5463 47.0394 42.5548 46.9719 42.5842 46.9063C42.6145 46.8406 42.661 46.79 42.7226 46.7534C42.7851 46.7169 42.8524 46.7019 42.9254 46.7075C42.9975 46.7131 43.0619 46.7394 43.1169 46.7853C43.1728 46.7394 43.2373 46.7131 43.3093 46.7075C43.3814 46.7019 43.4487 46.7169 43.5112 46.7534C43.5738 46.79 43.6203 46.8406 43.6496 46.9063C43.68 46.9719 43.6885 47.0394 43.6743 47.1106C43.4752 48.0594 44.3132 48.9931 45.2384 49.3475C46.0754 49.6691 46.9911 49.6766 47.9608 49.685H48.5551C49.6566 49.7113 51.0472 49.8547 52.033 50.7359C53.1734 51.755 53.4502 53.5953 52.6909 55.1094C52.0653 56.36 50.8206 57.3575 49.1902 57.9153C47.7674 58.4028 46.2668 58.5125 44.8165 58.6194H41.4145L40.9149 58.5809C40.9035 58.5913 40.8922 58.5997 40.8798 58.6081C40.8912 58.8463 40.8817 59.0844 40.8504 59.3206C40.8192 59.5578 40.767 59.7894 40.694 60.0172C40.6211 60.2441 40.5282 60.4634 40.4154 60.6744C40.3026 60.8853 40.1717 61.085 40.0229 61.2725C39.8741 61.4609 39.7092 61.6334 39.5291 61.7928C39.3489 61.9513 39.1556 62.0928 38.9499 62.2175C38.7442 62.3422 38.529 62.4472 38.3034 62.5334C38.0787 62.6197 37.8474 62.6863 37.6105 62.7313L32.7135 63.6331H44.59C48.4527 63.6022 52.2169 62.8991 55.4768 61.5744C55.5185 61.5594 55.5621 61.5519 55.6067 61.5538C55.6512 61.5547 55.6939 61.5641 55.7356 61.5819C55.7763 61.5997 55.8124 61.625 55.8436 61.6559C55.8749 61.6878 55.8986 61.7244 55.9157 61.7656C55.9327 61.8059 55.9413 61.8491 55.9422 61.8931C55.9422 61.9372 55.9337 61.9803 55.9176 62.0216C55.9005 62.0628 55.8768 62.0994 55.8465 62.1313C55.8152 62.1631 55.7792 62.1884 55.7384 62.2063C54.2009 62.8222 52.6198 63.2975 50.9951 63.6331H78.7709C78.8448 63.5272 78.9121 63.4166 78.9728 63.3013C79.0344 63.1869 79.0885 63.0697 79.1349 62.9488C79.1823 62.8278 79.2221 62.705 79.2543 62.5794C79.2875 62.4538 79.3122 62.3272 79.3302 62.1988C79.3482 62.0713 79.3577 61.9419 79.3605 61.8125C79.3624 61.6831 79.3577 61.5538 79.3444 61.4253C79.3321 61.2969 79.3112 61.1684 79.2837 61.0419C79.2553 60.9163 79.2202 60.7916 79.1776 60.6688C79.1359 60.5469 79.0856 60.4269 79.0287 60.3106C78.9728 60.1934 78.9093 60.0809 78.8392 59.9713C78.769 59.8616 78.6932 59.7566 78.6107 59.6563C78.5282 59.5559 78.4401 59.4603 78.3472 59.3703C78.2533 59.2794 78.1548 59.195 78.0505 59.1153C77.9472 59.0366 77.8391 58.9634 77.7272 58.8969C77.6144 58.8303 77.4988 58.7703 77.3803 58.7178C77.2609 58.6644 77.1386 58.6175 77.0135 58.5791L65.2214 54.8628C65.1759 54.8497 65.1351 54.8272 65.1001 54.7953C64.2119 56.2091 63.1322 57.4606 61.8591 58.5491C61.7947 58.6053 61.7188 58.6334 61.6326 58.6334C61.5615 58.6334 61.4961 58.6138 61.4364 58.5725C61.3776 58.5322 61.3359 58.4788 61.3103 58.4122C61.2847 58.3456 61.2809 58.2772 61.2989 58.2088C61.3169 58.1394 61.352 58.0822 61.406 58.0353C64.8327 55.0766 66.6433 51.2169 66.6433 46.8734C66.6395 45.2675 66.4214 43.6906 65.9892 42.1428C65.556 40.595 64.9247 39.1316 64.0934 37.7525H26.7426C25.9122 39.1306 25.2809 40.5941 24.8477 42.1409C24.4155 43.6878 24.1965 45.2647 24.1927 46.8697C24.1813 47.9722 24.2894 49.0634 24.5159 50.1434C24.7434 51.2225 25.0847 52.2659 25.5397 53.2728C25.553 53.2906 25.5653 53.3103 25.5748 53.3309ZM26.8374 40.9353C26.8374 40.8903 26.8459 40.8463 26.8639 40.805C26.881 40.7638 26.9056 40.7263 26.9379 40.6944C26.9701 40.6625 27.008 40.6381 27.0497 40.6213C27.0914 40.6044 27.136 40.595 27.1815 40.595H58.6428C58.6883 40.595 58.7329 40.6034 58.7746 40.6203C58.8173 40.6381 58.8542 40.6625 58.8874 40.6944C58.9196 40.7263 58.9443 40.7628 58.9623 40.805C58.9794 40.8463 58.9888 40.8903 58.9888 40.9353V45.0866C58.9879 45.2863 58.968 45.485 58.9282 45.6819C58.8884 45.8788 58.8296 46.0691 58.7528 46.2547C58.6751 46.4403 58.5793 46.6156 58.4665 46.7825C58.3537 46.9494 58.2258 47.1041 58.0826 47.2456C57.9395 47.3872 57.784 47.5138 57.6153 47.6253C57.4466 47.7369 57.2684 47.8316 57.0816 47.9084C56.8939 47.9853 56.7015 48.0434 56.5024 48.0828C56.3034 48.1222 56.1024 48.1419 55.8996 48.1428H49.0765C48.8736 48.1419 48.6736 48.1222 48.4745 48.0828C48.2755 48.0434 48.0831 47.9853 47.8954 47.9084C47.7077 47.8316 47.5304 47.7369 47.3617 47.6253C47.193 47.5138 47.0375 47.3872 46.8944 47.2456C46.7503 47.1041 46.6223 46.9494 46.5095 46.7825C46.3977 46.6156 46.3019 46.4403 46.2242 46.2547C46.1465 46.0691 46.0877 45.8788 46.0488 45.6819C46.009 45.485 45.9891 45.2863 45.9882 45.0866V43.8003H39.8817V45.0866C39.8817 45.2872 39.8618 45.4859 39.822 45.6828C39.7831 45.8806 39.7243 46.0719 39.6466 46.2575C39.5679 46.4431 39.4731 46.6194 39.3603 46.7863C39.2475 46.9531 39.1196 47.1078 38.9755 47.2503C38.8323 47.3919 38.6759 47.5194 38.5072 47.6309C38.3375 47.7425 38.1593 47.8372 37.9716 47.9141C37.7839 47.9909 37.5906 48.0491 37.3915 48.0884C37.1924 48.1278 36.9915 48.1475 36.7877 48.1475H29.9314C29.7285 48.1475 29.5276 48.1278 29.3276 48.0884C29.1285 48.0491 28.9351 47.9909 28.7474 47.9141C28.5598 47.8372 28.3816 47.7425 28.2128 47.6309C28.0441 47.5194 27.8877 47.3919 27.7446 47.2503C27.6005 47.1078 27.4725 46.9531 27.3597 46.7863C27.2469 46.6194 27.1512 46.4431 27.0734 46.2575C26.9957 46.0719 26.9369 45.8806 26.8971 45.6828C26.8573 45.4859 26.8374 45.2872 26.8374 45.0866V40.9353Z" fill="white"/>
<path d="M58.6429 40.595C58.6884 40.595 58.7329 40.6034 58.7746 40.6203C58.8173 40.6381 58.8543 40.6625 58.8874 40.6944C58.9197 40.7263 58.9443 40.7628 58.9623 40.805C58.9794 40.8463 58.9889 40.8903 58.9889 40.9353V45.0866C58.9889 45.7072 58.8135 46.2763 58.4609 46.7909C58.0637 53.0534 54.5147 60.3434 40.3301 60.8178C40.185 61.0644 40.0163 61.2922 39.8229 61.5031C39.6286 61.7131 39.4144 61.9016 39.1802 62.0666C38.9452 62.2316 38.6959 62.3703 38.4314 62.4819C38.1669 62.5944 37.893 62.6778 37.6105 62.7313L32.7136 63.6331H44.59C48.4528 63.6022 52.2169 62.8991 55.4768 61.5744C55.5185 61.5594 55.5621 61.5519 55.6067 61.5538C55.6513 61.5547 55.6939 61.5641 55.7356 61.5819C55.7764 61.5997 55.8124 61.625 55.8437 61.6559C55.875 61.6878 55.8987 61.7244 55.9157 61.7656C55.9328 61.8059 55.9413 61.8491 55.9423 61.8931C55.9423 61.9372 55.9337 61.9803 55.9176 62.0216C55.9006 62.0628 55.8769 62.0994 55.8465 62.1313C55.8152 62.1631 55.7792 62.1884 55.7385 62.2063C54.2009 62.8222 52.6198 63.2975 50.9951 63.6331H61.6222L64.7787 61.3963C64.7787 61.3963 66.0992 58.2734 67.2879 55.5191L65.2176 54.8666C65.1721 54.8534 65.1314 54.8309 65.0963 54.7991C64.2081 56.2128 63.1284 57.4634 61.8563 58.5528C61.7909 58.6091 61.7151 58.6372 61.6298 58.6372C61.5577 58.6372 61.4923 58.6166 61.4326 58.5763C61.3738 58.5359 61.3321 58.4825 61.3065 58.4159C61.2819 58.3494 61.2781 58.2809 61.2951 58.2125C61.3132 58.1431 61.3482 58.0859 61.4023 58.0391C64.829 55.0794 66.6395 51.2206 66.6395 46.8772C66.6376 45.2703 66.4196 43.6934 65.9873 42.1447C65.556 40.5969 64.9247 39.1325 64.0934 37.7525H57.2001C57.5224 38.6834 57.7793 39.6331 57.9727 40.5988L58.6429 40.595Z" fill="#E6E7E8"/>
<path d="M29.9314 47.4594H36.7877C36.946 47.4584 37.1015 47.4416 37.256 47.4106C37.4095 47.3797 37.5593 47.3337 37.7043 47.2737C37.8503 47.2137 37.9878 47.1397 38.1186 47.0534C38.2494 46.9662 38.3698 46.8678 38.4816 46.7572C38.5925 46.6466 38.6921 46.5275 38.7793 46.3972C38.8665 46.2678 38.9404 46.1319 39.0011 45.9875C39.0617 45.8441 39.1072 45.6959 39.1385 45.5431C39.1689 45.3903 39.185 45.2366 39.1859 45.0809V43.4591C39.185 43.4066 39.1964 43.3578 39.2191 43.3109C39.2419 43.2641 39.2741 43.2237 39.3148 43.1919C39.3566 43.16 39.4021 43.1375 39.4542 43.1272C39.5054 43.1159 39.5566 43.1159 39.6077 43.1281C39.6333 43.1225 39.6589 43.1197 39.6855 43.1187H46.0574C46.1048 43.1187 46.1503 43.1281 46.1948 43.1469C46.2375 43.1281 46.283 43.1187 46.3304 43.1187C46.3759 43.1187 46.4195 43.1272 46.4621 43.1441C46.5048 43.1619 46.5418 43.1862 46.574 43.2181C46.6072 43.25 46.6318 43.2866 46.6489 43.3287C46.6669 43.37 46.6754 43.4131 46.6754 43.4591V45.0866C46.6754 45.2422 46.6915 45.3959 46.7219 45.5487C46.7531 45.7016 46.7986 45.8497 46.8593 45.9941C46.92 46.1375 46.9939 46.2744 47.0811 46.4037C47.1683 46.5331 47.2679 46.6531 47.3797 46.7628C47.4906 46.8734 47.612 46.9719 47.7428 47.0581C47.8736 47.1444 48.012 47.2175 48.157 47.2775C48.303 47.3375 48.4528 47.3825 48.6073 47.4134C48.7618 47.4434 48.9172 47.4594 49.0746 47.4594H55.8996C56.0579 47.4594 56.2134 47.4434 56.3679 47.4134C56.5224 47.3825 56.6731 47.3375 56.8181 47.2784C56.9641 47.2184 57.1025 47.1453 57.2333 47.0591C57.3641 46.9719 57.4855 46.8734 57.5964 46.7637C57.7082 46.6531 57.8077 46.5341 57.895 46.4037C57.9831 46.2744 58.057 46.1384 58.1177 45.9941C58.1774 45.8506 58.2239 45.7016 58.2542 45.5487C58.2855 45.3959 58.3007 45.2422 58.3016 45.0866V41.2766H27.5266V45.0809C27.5275 45.2366 27.5427 45.3912 27.5739 45.5441C27.6052 45.6969 27.6517 45.845 27.7123 45.9894C27.773 46.1337 27.8469 46.2706 27.9351 46.4C28.0223 46.5294 28.1218 46.6494 28.2337 46.76C28.3456 46.8706 28.4669 46.9691 28.5977 47.0553C28.7285 47.1425 28.8669 47.2156 29.0129 47.2756C29.1579 47.3356 29.3086 47.3806 29.4631 47.4116C29.6177 47.4425 29.7741 47.4584 29.9314 47.4594Z" fill="#FFE6BC"/>
<path d="M79.8326 60.4503C79.9236 60.7091 79.9861 60.9753 80.0212 61.2472C80.0563 61.5191 80.0629 61.7919 80.0411 62.0647C80.0193 62.3385 79.9691 62.6066 79.8904 62.8691C79.8127 63.1325 79.7074 63.3847 79.5766 63.6266H86.1173C86.1002 63.5778 86.0955 63.5281 86.103 63.4775C86.1144 63.3491 86.1135 63.2216 86.1011 63.0941C86.0888 62.9656 86.0642 62.84 86.0272 62.7172C85.9902 62.5935 85.9428 62.4753 85.8831 62.361C85.8244 62.2466 85.7542 62.1388 85.6746 62.0375C85.595 61.9353 85.5068 61.8425 85.4092 61.7581C85.3115 61.6728 85.2063 61.5978 85.0945 61.5322C84.9826 61.4666 84.866 61.4122 84.7437 61.3691C84.6214 61.325 84.4963 61.2931 84.3684 61.2735C84.2622 61.2603 84.156 61.2566 84.0508 61.2528C83.8574 61.251 83.6659 61.2322 83.4764 61.1966C83.2716 61.1656 83.0868 61.0869 82.9237 60.9594C82.7607 60.8328 82.6394 60.6735 82.5607 60.4831C82.4327 60.1166 82.5607 59.7706 82.6706 59.4913C82.7247 59.3685 82.7645 59.24 82.7891 59.1078C82.8564 58.6306 82.3379 58.1891 81.8298 58.1122C81.1511 58.0297 80.4942 58.1103 79.8572 58.355C79.806 58.3747 79.7529 58.3813 79.698 58.3766C79.643 58.371 79.5927 58.3541 79.5463 58.3241C79.4999 58.295 79.4629 58.2575 79.4344 58.2106C79.407 58.1638 79.3908 58.1131 79.3871 58.0588C79.3747 57.8656 79.3311 57.681 79.2543 57.5028C79.1776 57.3247 79.0733 57.1644 78.9415 57.0219C78.8098 56.8794 78.6572 56.7631 78.4846 56.6722C78.3131 56.5813 78.1301 56.5213 77.9367 56.4922C77.7434 56.4631 77.5509 56.4669 77.3595 56.5035C77.167 56.5391 76.9869 56.6066 76.8182 56.7041C76.6495 56.8006 76.5016 56.9235 76.3755 57.0706C76.2485 57.2188 76.1509 57.3828 76.0817 57.5628L77.2182 57.921C77.5216 58.0147 77.8097 58.1422 78.0827 58.3035C78.3557 58.4647 78.605 58.655 78.8325 58.8753C79.06 59.0947 79.2581 59.3385 79.4269 59.6047C79.5965 59.87 79.7311 60.1522 79.8326 60.4503Z" fill="#FFE6BC"/>
<path d="M63.8763 37.0672L58.7528 8.35532H52.3734L57.4968 37.0672H63.8763Z" fill="#D30F1E"/>
<path d="M3.46558 63.6266H19.6323C19.3176 62.7884 18.2654 59.4734 20.0029 56.6469C21.0769 54.8909 23.1273 53.8419 24.7852 53.2484C24.3709 52.2856 24.0619 51.2909 23.8572 50.2634C23.7993 50.2897 23.7387 50.2991 23.6761 50.2925C23.6126 50.2859 23.5567 50.2634 23.5055 50.225C22.9083 49.7694 22.2192 49.3363 21.639 49.5659C21.166 49.7497 20.9224 50.3338 20.6845 50.8934L20.6513 50.975C20.2295 51.9725 19.6617 52.4956 18.9612 52.5303C18.4521 52.5566 18.018 52.295 17.6331 52.0653C17.2492 51.8366 16.9487 51.6575 16.6454 51.7259C16.3127 51.7991 16.107 52.1975 16.088 52.5341C16.0586 52.9325 16.1923 53.3366 16.3316 53.7669L16.3591 53.855C16.5193 54.3453 16.6786 54.9144 16.562 55.4834C16.5402 55.5894 16.4966 55.685 16.4321 55.7713C16.3667 55.8575 16.2861 55.9259 16.1904 55.9766C15.6169 56.3047 14.6529 56.0019 14.5448 55.9672C14.4377 55.9325 14.3391 55.8931 14.2349 55.8547C13.8633 55.7188 13.5144 55.5903 13.2121 55.6709C12.8082 55.7797 12.5855 56.2663 12.5788 56.6666C12.5694 57.17 12.7997 57.6894 13.0016 58.1506C13.0196 58.19 13.0291 58.2313 13.031 58.2753C13.0329 58.3184 13.0263 58.3597 13.012 58.4009C12.9969 58.4413 12.976 58.4788 12.9466 58.5106C12.9182 58.5434 12.885 58.5697 12.8462 58.5894C12.2272 58.9053 11.5162 58.5753 11.0555 58.16C10.7105 57.8497 10.3503 57.5741 10.0602 57.6716C9.87918 57.7663 9.73036 57.8975 9.61661 58.0663C9.39669 58.3288 9.14644 58.6175 8.7322 58.6944C8.20516 58.7806 7.81651 58.4394 7.50654 58.1638C7.29326 57.98 7.0923 57.7963 6.8904 57.7653C6.75485 57.7466 6.63446 57.7813 6.52924 57.8675C6.31596 58.0428 6.19178 58.2659 6.15861 58.5388C6.14344 58.9175 6.19178 59.2878 6.30459 59.6497C6.3444 59.8166 6.38516 59.9816 6.41644 60.1475C6.50934 60.6378 6.56905 61.5416 5.92826 62.0834C5.53014 62.4209 5.01637 62.4838 4.52629 62.5166C4.14523 62.5428 3.75185 62.57 3.49117 62.7631C3.36794 62.8606 3.30159 62.9881 3.29305 63.1447C3.28358 63.2141 3.30443 63.2722 3.35562 63.3191C3.44851 63.4016 3.48548 63.5038 3.46558 63.6266Z" fill="#FFE6BC"/>
<path d="M44.5919 64.3091H0.928955V67.6485H90.09V64.3091H44.5919Z" fill="#C49A6C"/>
<path d="M41.8676 57.9155L41.7766 57.944H42.1482C42.1311 57.9326 42.1122 57.9269 42.0961 57.9155C42.0193 57.8881 41.9434 57.8881 41.8676 57.9155Z" fill="#FFE6BC"/>
<path d="M43.2714 57.9434H44.8033C46.2052 57.8403 47.6546 57.7325 48.9893 57.2769C50.4472 56.7772 51.5524 55.9025 52.0984 54.8131C52.7127 53.5869 52.4956 52.0588 51.5951 51.2469C50.778 50.5119 49.5523 50.3966 48.5627 50.3741C48.3769 50.3741 48.1741 50.3741 47.9797 50.3647C46.9892 50.3647 45.9683 50.3488 45.008 49.9813C44.5862 49.8219 44.2127 49.5884 43.8876 49.28C43.5615 48.9716 43.3094 48.6125 43.1302 48.2028C42.951 48.6125 42.6989 48.9716 42.3728 49.28C42.0467 49.5884 41.6723 49.8219 41.2505 49.9813C40.2959 50.3488 39.2731 50.3488 38.2797 50.3647C38.0939 50.3647 37.8892 50.3647 37.6967 50.3741C36.7137 50.3966 35.4805 50.5156 34.6634 51.2488C33.7629 52.0531 33.5496 53.5869 34.1601 54.8131C34.2103 54.9106 34.2681 55.0063 34.3259 55.1019L36.2142 54.8572C35.8019 54.1831 35.6085 53.0009 36.1715 52.4038C36.2455 52.3278 36.3261 52.2594 36.4123 52.1975C36.4986 52.1366 36.5905 52.0831 36.6863 52.0372C36.782 51.9922 36.8815 51.9556 36.9849 51.9275C37.0872 51.8994 37.1915 51.8806 37.2977 51.8713C37.4038 51.8619 37.51 51.8619 37.6162 51.8713C37.7223 51.8797 37.8266 51.8984 37.929 51.9256C38.0323 51.9538 38.1318 51.9894 38.2276 52.0344C38.3243 52.0803 38.4153 52.1328 38.5025 52.1947C38.9252 52.5069 39.2058 52.9972 39.3357 53.6638C39.8893 53.4875 40.4552 53.4303 41.0334 53.4931C41.2694 53.5241 41.4894 53.5991 41.6941 53.7191C41.8989 53.8391 42.0723 53.9938 42.2126 54.1831C42.3188 54.3238 42.3918 54.4784 42.4316 54.6491C42.4704 54.8197 42.4733 54.9903 42.4392 55.1628C42.4221 55.2341 42.4012 55.3053 42.3766 55.3756C42.3491 55.4441 42.333 55.5153 42.3283 55.5884C42.3283 55.6634 42.4581 55.7609 42.6193 55.8256C42.679 55.8491 42.7406 55.8697 42.8051 55.8894C43.0259 55.9513 43.2278 56.0506 43.4108 56.1875C43.516 56.2784 43.6013 56.3853 43.6667 56.5081C43.7321 56.63 43.7729 56.7603 43.789 56.8981C43.8051 57.035 43.7956 57.1709 43.7606 57.305C43.7255 57.4391 43.6667 57.5628 43.5852 57.6753C43.4989 57.7859 43.3947 57.875 43.2714 57.9434Z" fill="#232323"/>
<path d="M43.0316 57.2581C43.06 57.2159 43.0799 57.17 43.0923 57.1203C43.1036 57.0716 43.1065 57.0209 43.1008 56.9712C43.0951 56.9206 43.0799 56.8728 43.0572 56.8278C43.0344 56.7819 43.0041 56.7416 42.9671 56.7069C42.8487 56.6234 42.7197 56.5625 42.5804 56.5231C42.5083 56.4997 42.4373 56.4753 42.3671 56.4481C41.9472 56.2831 41.6837 55.9925 41.6448 55.6531C41.6325 55.4806 41.659 55.3137 41.7225 55.1534C41.7405 55.1066 41.7548 55.0587 41.7652 55.01C41.7936 54.8469 41.7567 54.6997 41.6543 54.5694C41.478 54.3359 41.2438 54.1981 40.9519 54.1578C40.3433 54.095 39.7594 54.1878 39.2001 54.4353C39.1499 54.4587 39.0958 54.4691 39.0399 54.4662C38.984 54.4634 38.9319 54.4484 38.8835 54.4203C38.8342 54.3931 38.7954 54.3556 38.765 54.3087C38.7347 54.2619 38.7176 54.2112 38.7119 54.1559C38.6693 53.6853 38.5262 53.0534 38.092 52.7375C37.9849 52.6653 37.8692 52.6137 37.7432 52.5809C37.618 52.5491 37.491 52.5387 37.3621 52.55C37.2332 52.5612 37.11 52.5941 36.9924 52.6484C36.8749 52.7028 36.7706 52.775 36.6787 52.865C36.3592 53.2044 36.5431 54.2272 36.9033 54.6387C36.9498 54.6912 36.9763 54.7531 36.9829 54.8225C37.1972 54.83 37.4095 54.8544 37.6199 54.8947C37.8294 54.9359 38.0351 54.9922 38.237 55.0653C38.438 55.1384 38.6314 55.2266 38.8191 55.3306C39.0058 55.4337 39.1831 55.5509 39.3508 55.6822C39.5196 55.8134 39.676 55.9569 39.821 56.1134C39.966 56.2691 40.0978 56.435 40.2163 56.6122C40.3348 56.7884 40.4381 56.9731 40.5272 57.1662C40.6163 57.3584 40.6883 57.5572 40.7452 57.7616C41.0277 57.515 41.35 57.3453 41.713 57.2506C41.842 57.2131 41.9728 57.2028 42.1055 57.2197C42.2382 57.2375 42.3624 57.2806 42.4761 57.35C42.5207 57.3762 42.5681 57.3941 42.6193 57.4034C42.6695 57.4128 42.7207 57.4128 42.7709 57.4044C42.8221 57.3959 42.8695 57.3791 42.915 57.3537C42.9596 57.3294 42.9984 57.2966 43.0316 57.2581Z" fill="#FFE6BC"/>
<path d="M41.4647 53.5991C41.7671 53.7219 42.0145 53.9141 42.2069 54.1766C42.3131 54.3162 42.3861 54.4709 42.4259 54.6416C42.4648 54.8122 42.4676 54.9837 42.4335 55.1553C42.4164 55.2275 42.3956 55.2978 42.3709 55.3681C42.3434 55.4366 42.3273 55.5078 42.3226 55.5809C42.3226 55.6569 42.4525 55.7534 42.6136 55.8181C42.6733 55.8425 42.7349 55.8622 42.7994 55.8828C43.0203 55.9437 43.2222 56.0431 43.4051 56.18C43.5103 56.2709 43.5956 56.3778 43.661 56.5006C43.7265 56.6225 43.7672 56.7528 43.7833 56.8906C43.7994 57.0284 43.79 57.1634 43.7549 57.2975C43.7198 57.4316 43.661 57.5553 43.5795 57.6678C43.4923 57.7812 43.3861 57.8731 43.2601 57.9434H44.7929C46.1948 57.8403 47.6432 57.7325 48.9789 57.2769C50.4368 56.7772 51.5411 55.9025 52.0871 54.8131C52.1951 54.5984 52.2786 54.3734 52.3373 54.14C52.3951 53.9066 52.4274 53.6703 52.434 53.4294C52.4397 53.1894 52.4188 52.9512 52.3724 52.715C52.326 52.4797 52.253 52.2509 52.1563 52.0306C50.8813 51.5947 49.5694 51.38 48.2205 51.3866C45.5 51.3866 43.0563 52.2491 41.4647 53.5991Z" fill="#FF7D87"/>
<path d="M36.2739 8.35532L31.4396 37.0672H27.101L32.2254 8.35532H36.2739Z" fill="white"/>
<path d="M47.7883 8.35532L52.6207 37.0672H56.9584L51.8349 8.35532H47.7883Z" fill="white"/>
<path d="M55.9631 8.35532L60.7956 37.0672H63.756L58.6315 8.35532H55.9631Z" fill="#E6E7E8"/>
<path d="M40.3964 8.35532L38.1603 37.0672H45.7379L43.5018 8.35532H40.3964Z" fill="white"/>
<path d="M53.3279 39.1625C51.9307 39.3688 50.6368 39.8459 49.4443 40.595H58.6429C58.6884 40.595 58.7329 40.6034 58.7746 40.6203C58.8173 40.6381 58.8543 40.6625 58.8875 40.6944C58.9197 40.7263 58.9443 40.7628 58.9623 40.805C58.9794 40.8463 58.9889 40.8903 58.9889 40.9353V45.0866C58.9879 45.2863 58.968 45.485 58.9282 45.6819C58.8884 45.8788 58.8296 46.0691 58.7528 46.2547C58.6751 46.4403 58.5794 46.6156 58.4666 46.7825C58.3538 46.9494 58.2258 47.1041 58.0827 47.2456C57.9395 47.3872 57.7841 47.5138 57.6153 47.6253C57.4466 47.7369 57.2684 47.8316 57.0817 47.9084C56.894 47.9853 56.7016 48.0434 56.5025 48.0828C56.3034 48.1222 56.1025 48.1419 55.8996 48.1428H49.0765C48.7419 48.1428 48.4149 48.0903 48.0973 47.9844C47.7788 47.8794 47.4869 47.7256 47.2195 47.525C47.4669 47.9591 47.7883 48.3303 48.1836 48.6388C49.0803 49.3306 50.2263 49.5875 51.3411 49.8247L57.1291 51.0613C58.3405 51.3181 59.605 51.5769 60.8032 51.2684C62.991 50.705 64.3219 48.3059 64.2223 46.0728C64.1361 44.1603 63.046 41.2569 61.3103 40.1853C59.1424 38.8428 55.7698 38.7566 53.3279 39.1625Z" fill="#6D6E71"/>
<path d="M57.9784 40.595H58.6429C58.6884 40.595 58.7329 40.6034 58.7747 40.6203C58.8173 40.6381 58.8543 40.6625 58.8875 40.6944C58.9197 40.7262 58.9443 40.7628 58.9623 40.805C58.9794 40.8462 58.9889 40.8903 58.9889 40.9353V45.0866C58.9889 45.1812 58.9889 45.2694 58.9737 45.3669C58.9737 45.395 58.9737 45.4222 58.9642 45.4494C58.9642 45.5178 58.9453 45.5834 58.933 45.65C58.933 45.6772 58.9235 45.7053 58.9178 45.7306C58.8998 45.8197 58.877 45.9069 58.8495 45.9931C58.8211 46.0766 58.7917 46.1572 58.7585 46.2378L58.7244 46.3128C58.6988 46.3719 58.6694 46.4309 58.6391 46.4872C58.6268 46.5116 58.6154 46.535 58.6002 46.5612C58.5576 46.6362 58.513 46.7112 58.4647 46.7834C58.3803 48.2816 58.0931 49.7403 57.603 51.1606C58.6713 51.3791 59.7681 51.5403 60.8155 51.2722C63.0033 50.7087 64.3351 48.3097 64.2347 46.0766C64.1493 44.1641 63.0592 41.2606 61.3227 40.1891C60.279 39.5469 58.9623 39.1934 57.6087 39.0434C57.7215 39.4709 57.8523 39.995 57.9784 40.595Z" fill="#58595B"/>
<path d="M35.1999 49.8247C36.3147 49.5875 37.4683 49.3306 38.3575 48.6388C39.5329 47.7312 40.0694 46.1516 39.8751 44.6872V45.0809C39.8751 45.2816 39.8542 45.4803 39.8154 45.6772C39.7755 45.875 39.7168 46.0663 39.639 46.2519C39.5613 46.4375 39.4656 46.6137 39.3528 46.7806C39.24 46.9475 39.112 47.1022 38.9679 47.2447C38.8248 47.3863 38.6684 47.5138 38.4996 47.6253C38.3309 47.7369 38.1518 47.8316 37.965 47.9084C37.7773 47.9853 37.584 48.0434 37.3839 48.0828C37.1849 48.1222 36.9839 48.1419 36.7811 48.1428H29.9314C29.7286 48.1419 29.5276 48.1222 29.3276 48.0828C29.1285 48.0434 28.9352 47.9853 28.7475 47.9084C28.5598 47.8316 28.3816 47.7369 28.2129 47.6253C28.0441 47.5138 27.8877 47.3863 27.7446 47.2447C27.6005 47.1022 27.4725 46.9475 27.3597 46.7806C27.2469 46.6137 27.1512 46.4375 27.0735 46.2519C26.9957 46.0663 26.937 45.875 26.8971 45.6772C26.8573 45.4803 26.8374 45.2816 26.8374 45.0809V40.9353C26.8374 40.8903 26.846 40.8462 26.864 40.805C26.881 40.7637 26.9057 40.7262 26.9379 40.6944C26.9701 40.6625 27.0081 40.6381 27.0498 40.6212C27.0915 40.6044 27.136 40.595 27.1815 40.595H37.1072C35.9166 39.8459 34.6227 39.3678 33.2264 39.1625C30.9248 38.7809 27.7977 38.8353 25.6212 39.9669C24.6781 42.1719 24.2041 44.4716 24.2003 46.8659C24.1965 48.2028 24.3567 49.5209 24.6838 50.8184C25.0117 51.02 25.3625 51.17 25.7359 51.2684C26.936 51.5769 28.2005 51.3181 29.412 51.0612L35.1999 49.8247Z" fill="#6D6E71"/>
<path d="M77.0135 58.5716L65.2214 54.8553C65.1759 54.8422 65.1351 54.8197 65.1001 54.7878C64.2119 56.2016 63.1322 57.4531 61.8591 58.5425C61.7947 58.5978 61.7188 58.6259 61.6326 58.6269C61.5283 58.6259 61.4421 58.5875 61.3729 58.5087C61.3264 58.4562 61.2989 58.3953 61.2913 58.325C59.7548 59.8616 57.9746 61.0344 55.9479 61.8425C55.9565 61.9175 55.9413 61.9869 55.9024 62.0516C55.8636 62.1162 55.8086 62.1631 55.7384 62.1912C55.018 62.4819 54.2749 62.7425 53.5099 62.9741C53.2236 63.1578 52.9392 63.3303 52.6482 63.4953C52.5809 63.5347 52.5127 63.5769 52.4454 63.6191H78.7709C78.8449 63.5122 78.9122 63.4016 78.9728 63.2872C79.0344 63.1728 79.0885 63.0547 79.1349 62.9337C79.1823 62.8128 79.2221 62.69 79.2544 62.5644C79.2875 62.4397 79.3122 62.3122 79.3302 62.1847C79.3482 62.0562 79.3577 61.9269 79.3605 61.7975C79.3624 61.6681 79.3577 61.5397 79.3444 61.4103C79.3321 61.2819 79.3112 61.1544 79.2837 61.0278C79.2553 60.9012 79.2202 60.7766 79.1776 60.6547C79.1359 60.5319 79.0856 60.4128 79.0288 60.2956C78.9728 60.1794 78.9093 60.0659 78.8392 59.9562C78.769 59.8475 78.6932 59.7425 78.6107 59.6412C78.5283 59.5409 78.4401 59.4453 78.3472 59.3553C78.2534 59.2644 78.1548 59.18 78.0505 59.1012C77.9472 59.0216 77.8391 58.9494 77.7273 58.8828C77.6145 58.8162 77.4988 58.7562 77.3803 58.7028C77.2609 58.6494 77.1386 58.6034 77.0135 58.5641V58.5716Z" fill="#6D6E71"/>
<path d="M31.8984 34.3484L31.4396 37.0672H27.1028L27.5863 34.3672C28.8745 34.3484 30.3362 34.3447 31.8984 34.3484Z" fill="#E6E7E8"/>
<path d="M56.9584 37.0672H52.6207L52.2283 34.7394H52.2728C52.415 34.7441 52.5553 34.7328 52.6956 34.7066C52.8349 34.6803 52.9696 34.6391 53.1004 34.5828C53.2302 34.5275 53.3535 34.4581 53.4682 34.3756C53.5829 34.2931 53.6881 34.1994 53.7819 34.0944C53.8758 33.9894 53.9582 33.8759 54.0265 33.7531C54.0957 33.6303 54.1507 33.5009 54.1905 33.3669C54.2312 33.2319 54.2559 33.0941 54.2663 32.9544C54.2758 32.8137 54.2701 32.675 54.2492 32.5353L50.6614 8.36469H51.8368L56.9584 37.0672Z" fill="#E6E7E8"/>
<path d="M45.7379 37.0672H38.1584L38.3669 34.4169C40.8334 34.4572 43.3008 34.5106 45.5427 34.565L45.7379 37.0672Z" fill="#E6E7E8"/>
<path d="M31.8984 34.3484L31.4396 37.0672H27.1028L27.5825 34.3672C28.8745 34.3484 30.3362 34.3447 31.8984 34.3484Z" fill="#E6E7E8"/>
<path d="M79.114 62.9741C76.9244 62.8784 74.7915 62.4847 72.7147 61.7928C71.27 61.31 69.8264 60.6547 68.831 59.5137C67.9305 58.4834 67.4888 56.9769 67.9438 55.715L65.2138 54.8553C65.1683 54.8422 65.1275 54.8197 65.0925 54.7878C64.2043 56.2016 63.1246 57.4531 61.8525 58.5425C61.7871 58.5978 61.7112 58.6259 61.6259 58.6269C61.5207 58.6259 61.4345 58.5875 61.3653 58.5087C61.3188 58.4562 61.2913 58.3953 61.2837 58.325C59.7481 59.8616 57.967 61.0344 55.9413 61.8425C55.9489 61.9175 55.9337 61.9869 55.8948 62.0516C55.856 62.1162 55.801 62.1631 55.7308 62.1912C55.0104 62.4819 54.2673 62.7425 53.5023 62.9741C53.216 63.1578 52.9326 63.3303 52.6406 63.4953C52.5743 63.5347 52.5051 63.5769 52.4387 63.6191H78.7709C78.9093 63.4166 79.024 63.2019 79.114 62.9741Z" fill="#58595B"/>
<path d="M58.2997 45.0865V41.2766H56.7954V45.2234L49.2926 46.385C49.2926 46.385 47.5058 46.7225 46.6773 45.0987C46.6773 45.2544 46.6934 45.409 46.7238 45.5619C46.755 45.7147 46.8005 45.8628 46.8612 46.0062C46.9219 46.1506 46.9958 46.2875 47.083 46.4169C47.1702 46.5462 47.2698 46.6662 47.3816 46.7759C47.4925 46.8856 47.6138 46.984 47.7447 47.0712C47.8755 47.1575 48.0139 47.2306 48.1589 47.2906C48.3049 47.3497 48.4547 47.3956 48.6092 47.4256C48.7637 47.4565 48.9191 47.4715 49.0765 47.4725H55.8996C56.0579 47.4715 56.2143 47.4565 56.3698 47.4256C56.5243 47.3947 56.675 47.3497 56.821 47.2887C56.9669 47.2287 57.1053 47.1556 57.2362 47.0684C57.367 46.9812 57.4883 46.8819 57.6002 46.7712C57.712 46.6606 57.8106 46.5397 57.8987 46.4094C57.986 46.28 58.0599 46.1422 58.1196 45.9978C58.1793 45.8534 58.2248 45.7044 58.2552 45.5506C58.2855 45.3969 58.2997 45.2422 58.2997 45.0865Z" fill="#E2C191"/>
<path d="M24.7671 53.21C24.6354 53.1819 24.5017 53.1659 24.3671 53.1622C24.2335 53.2391 24.0903 53.2972 23.9396 53.3347C23.7889 53.3722 23.6353 53.3881 23.4799 53.3834C23.3244 53.3778 23.1727 53.3516 23.0249 53.3047C22.877 53.2578 22.7377 53.1913 22.6087 53.105C22.0978 52.7563 21.6153 52.1872 21.7262 51.5844C21.3556 52.2088 20.4655 52.5266 19.838 52.1534C20.0389 52.415 20.4209 52.6184 20.51 52.9306C20.5792 53.1884 20.584 53.4481 20.5224 53.7078C20.4617 53.9684 20.3423 54.1991 20.165 54.4006C19.8124 54.7916 19.3384 55.1038 18.8057 55.1094H18.6047C19.2692 55.5828 19.3052 56.6994 18.672 57.2141C18.9356 57.7934 19.0882 58.4 19.1289 59.0347C19.2607 58.175 19.5527 57.3725 20.0029 56.6263C21.0769 54.8703 23.1272 53.8213 24.7852 53.2288C24.7795 53.2222 24.7738 53.2156 24.7671 53.21Z" fill="#E2C191"/>
<path d="M19.6323 63.6266C19.2218 62.5062 19.0209 61.3512 19.0285 60.1606C18.9915 60.3134 18.9214 60.4494 18.818 60.5694C18.7147 60.6894 18.5905 60.7794 18.4436 60.8394C17.9772 60.9997 17.4568 60.6566 17.2454 60.2206C17.034 59.7856 17.0596 59.2691 17.071 58.7806C16.962 58.8931 16.8331 58.9728 16.6833 59.0197C16.5336 59.0666 16.3819 59.0741 16.2274 59.0431C15.9221 58.9794 15.6368 58.8669 15.3714 58.7056C14.978 58.4947 14.4074 58.5219 14.0121 58.3166C14.4206 58.7441 14.8159 59.255 14.8216 59.8428C14.8273 60.4306 14.2273 61.0306 13.6737 60.8178C13.4547 60.7091 13.2737 60.5553 13.1296 60.3584C12.9883 60.1606 12.8026 60.0172 12.5732 59.9309C12.3409 59.87 12.0433 59.9909 12.0158 60.2262C12.2907 60.4644 12.4594 60.7606 12.521 61.1169C12.5333 61.2031 12.5314 61.2894 12.5144 61.3747C12.4983 61.4609 12.467 61.5406 12.4234 61.6166C12.3788 61.6916 12.3239 61.7581 12.2575 61.8153C12.1902 61.8725 12.1163 61.9166 12.0347 61.9494C11.6982 62.0506 11.1058 61.8003 11.174 61.4609C11.1465 61.5922 11.1077 61.7197 11.0584 61.8444C11.0081 61.9691 10.9484 62.0891 10.8773 62.2034C10.8072 62.3178 10.7276 62.4256 10.6385 62.5269C10.5494 62.6272 10.4517 62.72 10.3465 62.8044C10.2413 62.8897 10.1304 62.9647 10.0119 63.0303C9.89339 63.0959 9.77111 63.1512 9.64314 63.1962C9.51518 63.2412 9.38436 63.275 9.25071 63.2975C9.11705 63.3209 8.98339 63.3322 8.84784 63.3322C8.71229 63.3256 8.57769 63.3069 8.44498 63.2778C8.31322 63.2478 8.1843 63.2075 8.05823 63.1559C7.9331 63.1053 7.81272 63.0434 7.69802 62.9712C7.58332 62.9 7.47526 62.8184 7.37478 62.7284C7.2743 62.6384 7.18235 62.5409 7.09799 62.435C7.01457 62.33 6.94063 62.2175 6.87618 62.0994C6.81172 61.9812 6.75769 61.8584 6.71408 61.7309C6.67143 61.6044 6.6392 61.4741 6.61929 61.3409L6.39084 61.3541C6.31122 61.6419 6.15765 61.8828 5.93015 62.0778C5.53203 62.4153 5.01826 62.4781 4.52724 62.5109C4.14712 62.5372 3.75374 62.5644 3.49306 62.7575C3.36888 62.855 3.30348 62.9825 3.29495 63.1391C3.28547 63.2084 3.30632 63.2666 3.35751 63.3134C3.45514 63.3969 3.49306 63.5009 3.47315 63.6266H19.6323Z" fill="#E2C191"/>
<path d="M78.169 58.2866C78.2429 58.4234 78.3311 58.5509 78.4325 58.6691C78.534 58.7881 78.6477 58.8941 78.7719 58.9887C78.897 59.0825 79.0307 59.1631 79.1719 59.2287C79.3141 59.2953 79.462 59.345 79.6146 59.3806C79.7681 59.4153 79.9227 59.4331 80.08 59.435C80.2364 59.4369 80.3919 59.4228 80.5464 59.3919C80.6999 59.3609 80.8488 59.3141 80.9919 59.2522C81.136 59.1894 81.2715 59.1125 81.3986 59.0216C81.4005 59.1528 81.4166 59.2822 81.4469 59.4097C81.4782 59.5372 81.5227 59.6591 81.5815 59.7772C81.6403 59.8944 81.7114 60.0041 81.7948 60.1062C81.8782 60.2075 81.972 60.2994 82.0763 60.38C82.1806 60.4616 82.2924 60.53 82.4119 60.5862C82.5323 60.6425 82.6564 60.6847 82.7863 60.7137C82.9152 60.7419 83.046 60.7559 83.1787 60.7559C83.3115 60.755 83.4423 60.7409 83.5712 60.7109C84.3295 60.5403 85.0253 61.1028 85.5959 61.6203C85.8822 61.8847 86.1069 62.1941 86.268 62.5484C86.4282 62.9019 86.5145 63.2731 86.5239 63.6612C84.1305 64.0869 81.7398 64.0691 79.352 63.6078C79.7236 62.6891 80.0525 61.6475 79.6847 60.7334C79.497 60.3266 79.2496 59.9591 78.9416 59.6309C78.6107 59.255 78.4922 58.6653 78.169 58.2866Z" fill="#E2C191"/>
<path d="M37.4825 62.0534C37.6901 62.015 37.892 61.9569 38.0882 61.88C38.2844 61.8031 38.4721 61.7084 38.6503 61.5959C38.8286 61.4844 38.9944 61.3569 39.148 61.2134C39.3016 61.07 39.4409 60.9144 39.5641 60.7447C39.6883 60.5759 39.7954 60.3969 39.8845 60.2075C39.9736 60.0181 40.0447 59.8222 40.0969 59.6206C40.149 59.4181 40.1812 59.2119 40.1936 59.0037C40.2059 58.7956 40.1992 58.5875 40.1717 58.3803C40.3575 61.2566 28.7541 62.2081 28.7541 62.2081H19.9423C20.0389 62.6694 20.1726 63.1203 20.3432 63.56C20.3527 63.5816 20.3603 63.6041 20.365 63.6275H28.9475L37.4825 62.0534Z" fill="#58595B"/>
<path d="M25.8535 55.2669C25.5643 54.8131 25.3008 54.3444 25.0638 53.8625C23.5055 54.4128 21.5651 55.3869 20.583 56.9844C19.6873 58.4534 19.6323 60.1072 19.7972 61.3794C19.7972 61.3794 21.2589 55.4694 25.8535 55.2669Z" fill="#939598"/>
<path d="M0.919495 66.5891H90.0805V67.6484H0.919495V66.5891Z" fill="#A97C50"/>
<path d="M90.0805 64.3091H0.928955V65.0169H90.09L90.0805 64.3091Z" fill="#FFDEBD"/>
<path d="M51.324 50.8372C51.1032 50.4509 50.4102 50.6862 50.087 50.7837C49.159 51.0828 48.3191 51.5422 47.5693 52.1591C47.1532 52.4731 46.7939 52.8406 46.4896 53.2616C46.1664 53.6844 45.955 54.1559 45.8564 54.6772C45.8451 54.7691 45.9702 54.7747 46.0128 54.7175C46.319 54.3172 46.6726 53.9619 47.0707 53.6506C47.4423 53.3628 47.7807 53.0525 48.1618 52.7853C48.9343 52.2781 49.7524 51.8534 50.615 51.5131C50.8861 51.3931 51.5838 51.2891 51.324 50.8372Z" fill="#232323"/>
<path d="M47.8831 42.1934H57.0921V42.9828C57.0921 43.2172 57.0693 43.4487 57.0229 43.6784C56.9764 43.9081 56.9082 44.1303 56.8172 44.3469C56.7262 44.5625 56.6153 44.7678 56.4835 44.9628C56.3517 45.1569 56.202 45.3369 56.0351 45.5019C55.8674 45.6678 55.6854 45.815 55.4882 45.9444C55.292 46.0747 55.0834 46.1844 54.8654 46.2734C54.6464 46.3625 54.4208 46.43 54.1886 46.475C53.9564 46.5209 53.7222 46.5434 53.4852 46.5425H51.4832C51.2472 46.5425 51.0131 46.52 50.7808 46.4741C50.5495 46.4281 50.3239 46.3606 50.1059 46.2716C49.887 46.1825 49.6794 46.0728 49.4831 45.9425C49.2869 45.8122 49.1049 45.665 48.9371 45.4991C48.7703 45.3341 48.6205 45.1541 48.4897 44.96C48.358 44.765 48.2471 44.5606 48.157 44.3441C48.066 44.1284 47.9978 43.9053 47.9523 43.6756C47.9058 43.4469 47.8831 43.2153 47.8831 42.9809V42.1916V42.1934Z" fill="#00AEEF"/>
<path d="M28.7541 42.1934H37.964V42.9828C37.964 43.2172 37.9404 43.4487 37.8939 43.6784C37.8475 43.9081 37.7792 44.1303 37.6882 44.3469C37.5982 44.5625 37.4863 44.7678 37.3555 44.9628C37.2237 45.1569 37.074 45.3369 36.9062 45.5019C36.7393 45.6678 36.5564 45.815 36.3602 45.9444C36.163 46.0747 35.9554 46.1844 35.7364 46.2734C35.5175 46.3625 35.2919 46.43 35.0606 46.475C34.8283 46.5209 34.5942 46.5434 34.3572 46.5425H32.3552C32.1182 46.5425 31.8841 46.52 31.6528 46.4741C31.4206 46.4281 31.1959 46.3606 30.977 46.2716C30.7589 46.1825 30.5513 46.0728 30.3542 45.9425C30.158 45.8122 29.976 45.665 29.8091 45.4991C29.6413 45.3341 29.4925 45.1541 29.3608 44.96C29.2299 44.765 29.119 44.5606 29.028 44.3441C28.938 44.1284 28.8697 43.9053 28.8233 43.6756C28.7768 43.4469 28.7541 43.2153 28.7541 42.9809V42.1916V42.1934Z" fill="#ED1C24"/>
<path d="M29.9314 48.3687H36.7877C37.0066 48.3678 37.2228 48.3472 37.437 48.305C37.6503 48.2628 37.8588 48.2 38.0607 48.1175C38.2617 48.035 38.4532 47.9337 38.6352 47.8137C38.8162 47.6937 38.984 47.5578 39.1385 47.405C39.293 47.2522 39.4314 47.0862 39.5528 46.9072C39.6741 46.7272 39.7765 46.5378 39.8599 46.3391C39.9433 46.1394 40.0068 45.9341 40.0495 45.7222C40.0921 45.5103 40.1139 45.2966 40.1139 45.0809V44.0281H45.7597V45.0866C45.7607 45.3012 45.7815 45.515 45.8242 45.7259C45.8668 45.9378 45.9303 46.1422 46.0138 46.3419C46.0972 46.5406 46.1995 46.73 46.3209 46.9091C46.4413 47.0881 46.5787 47.2531 46.7332 47.4059C46.8868 47.5587 47.0546 47.6947 47.2356 47.8137C47.4167 47.9337 47.6082 48.035 47.8091 48.1175C48.0101 48.2 48.2177 48.2628 48.4319 48.305C48.6452 48.3472 48.8613 48.3678 49.0784 48.3687H55.8996C56.1176 48.3678 56.3337 48.3472 56.547 48.305C56.7612 48.2628 56.9688 48.2009 57.1698 48.1184C57.3717 48.0359 57.5622 47.9347 57.7442 47.8147C57.9253 47.6947 58.0931 47.5588 58.2466 47.4069C58.4011 47.2541 58.5386 47.0881 58.6599 46.9091C58.7812 46.73 58.8836 46.5406 58.967 46.3419C59.0505 46.1431 59.113 45.9378 59.1557 45.7269C59.1993 45.515 59.2201 45.3012 59.2201 45.0866V40.9353C59.2201 40.8594 59.2059 40.7872 59.1765 40.7178C59.1471 40.6475 59.1054 40.5866 59.0514 40.5331C58.9974 40.4797 58.9358 40.4394 58.8647 40.4103C58.7945 40.3812 58.7215 40.3672 58.6447 40.3672H27.1815C27.1047 40.3672 27.0317 40.3822 26.9616 40.4103C26.8914 40.4394 26.8289 40.4806 26.7758 40.5341C26.7218 40.5866 26.68 40.6484 26.6507 40.7178C26.6222 40.7872 26.6071 40.8594 26.6071 40.9353V45.0809C26.6071 45.2966 26.6289 45.5103 26.6715 45.7222C26.7142 45.9331 26.7777 46.1384 26.8611 46.3381C26.9445 46.5378 27.0478 46.7272 27.1682 46.9062C27.2896 47.0853 27.428 47.2522 27.5825 47.4041C27.736 47.5569 27.9038 47.6928 28.0858 47.8128C28.2669 47.9328 28.4583 48.0341 28.6602 48.1175C28.8612 48.2 29.0697 48.2619 29.283 48.305C29.4973 48.3472 29.7134 48.3678 29.9314 48.3687ZM27.7569 41.5044H58.0694V45.0866C58.0684 45.2272 58.0551 45.3659 58.0267 45.5047C57.9992 45.6425 57.9575 45.7766 57.9035 45.9069C57.8485 46.0363 57.7812 46.16 57.7025 46.2772C57.6229 46.3944 57.5338 46.5022 57.4324 46.6016C57.3319 46.7019 57.2229 46.7909 57.1044 46.8687C56.9859 46.9466 56.8608 47.0131 56.73 47.0675C56.5982 47.1209 56.4626 47.1622 56.3233 47.1894C56.183 47.2175 56.0427 47.2316 55.8996 47.2316H49.0765C48.9343 47.2316 48.793 47.2175 48.6537 47.1903C48.5144 47.1622 48.3788 47.1219 48.247 47.0675C48.1153 47.0141 47.9902 46.9475 47.8726 46.8697C47.7541 46.7909 47.6442 46.7019 47.5437 46.6025C47.4432 46.5031 47.3532 46.3944 47.2735 46.2772C47.1949 46.1609 47.1276 46.0372 47.0735 45.9069C47.0185 45.7766 46.9778 45.6425 46.9493 45.5047C46.9219 45.3669 46.9076 45.2272 46.9076 45.0866V43.4591C46.9076 43.3831 46.8934 43.3109 46.864 43.2416C46.8347 43.1712 46.7929 43.1103 46.7389 43.0569C46.6849 43.0034 46.6223 42.9622 46.5522 42.9341C46.482 42.905 46.4081 42.8909 46.3323 42.8909C46.2858 42.8919 46.2413 42.8975 46.1967 42.9097C46.1512 42.8975 46.1057 42.8919 46.0593 42.8909H39.693C39.6665 42.8891 39.6409 42.8891 39.6144 42.8909C39.5888 42.8891 39.5622 42.8891 39.5366 42.8909C39.4608 42.8909 39.3878 42.9059 39.3167 42.9341C39.2466 42.9631 39.185 43.0044 39.1309 43.0578C39.0769 43.1103 39.0352 43.1722 39.0068 43.2416C38.9774 43.3109 38.9632 43.3831 38.9632 43.4591V45.0809C38.9632 45.2216 38.9489 45.3612 38.9205 45.5C38.893 45.6388 38.8513 45.7728 38.7973 45.9031C38.7423 46.0334 38.675 46.1581 38.5954 46.2753C38.5167 46.3925 38.4266 46.5012 38.3252 46.6006C38.2247 46.7009 38.1148 46.79 37.9963 46.8687C37.8768 46.9466 37.7517 47.0131 37.62 47.0675C37.4882 47.1209 37.3526 47.1622 37.2123 47.1894C37.0721 47.2175 36.9308 47.2316 36.7877 47.2316H29.9314C29.7892 47.2316 29.647 47.2175 29.5077 47.1894C29.3674 47.1622 29.2318 47.1209 29.1001 47.0675C28.9674 47.0131 28.8422 46.9466 28.7238 46.8687C28.6053 46.79 28.4953 46.7009 28.3939 46.6006C28.2934 46.5012 28.2033 46.3925 28.1237 46.2753C28.0441 46.1581 27.9777 46.0334 27.9228 45.9031C27.8678 45.7728 27.827 45.6388 27.7986 45.5C27.7711 45.3612 27.7569 45.2216 27.7569 45.0809V41.5044Z" fill="#232323"/>
<path d="M90.4265 63.4006H87.0292C87.0358 63.2197 87.0254 63.0406 86.9979 62.8625C86.9714 62.6834 86.9277 62.509 86.869 62.3384C86.8093 62.1678 86.7353 62.0047 86.6453 61.8472C86.5562 61.6906 86.4528 61.5425 86.3353 61.4037C86.2187 61.2659 86.0898 61.1394 85.9495 61.0241C85.8092 60.9087 85.6594 60.8075 85.5002 60.7194C85.3409 60.6312 85.175 60.5591 85.0016 60.5009C84.8291 60.4428 84.6527 60.4006 84.4717 60.3753C84.3437 60.3603 84.2158 60.3547 84.0859 60.349C83.9447 60.3481 83.8053 60.3359 83.666 60.3125C83.5721 60.3012 83.4944 60.2619 83.4299 60.1934C83.4423 60.065 83.4764 59.9422 83.5323 59.8259C83.611 59.6394 83.6669 59.4462 83.701 59.2475C83.8461 58.2153 82.9219 57.3706 81.9682 57.2272C81.3606 57.1465 80.7578 57.1784 80.1615 57.3228C80.0762 57.0772 79.9568 56.8503 79.8023 56.6412C79.6487 56.4322 79.4667 56.2494 79.2572 56.0937C79.0477 55.9381 78.8202 55.8162 78.5738 55.729C78.3273 55.6409 78.0733 55.5903 77.8116 55.5772C77.55 55.565 77.2922 55.5903 77.0391 55.654C76.785 55.7178 76.5462 55.8162 76.3225 55.9512C76.0978 56.0853 75.8987 56.2494 75.7253 56.4425C75.5508 56.6356 75.4087 56.8503 75.2997 57.0856L65.7797 54.079C66.3741 52.9681 66.8224 51.8028 67.1248 50.5822C67.4263 49.3615 67.5732 48.1222 67.5647 46.8659C67.5599 45.1625 67.3258 43.4909 66.8623 41.8503C66.3987 40.2097 65.7219 38.66 64.8328 37.2012L59.6145 7.91655C59.6097 7.89405 59.604 7.87342 59.5974 7.85186C59.5974 7.83686 59.5879 7.82092 59.5822 7.80592C59.5775 7.79092 59.5661 7.77311 59.5567 7.75624C59.5472 7.73936 59.5396 7.72342 59.5311 7.70842C59.5216 7.6953 59.5121 7.68311 59.5007 7.67186C59.4884 7.65405 59.4751 7.63811 59.46 7.62217L59.4249 7.59311C59.4078 7.57999 59.3936 7.56499 59.3766 7.55467C59.3623 7.54436 59.3462 7.53592 59.3301 7.52842C59.314 7.51811 59.2969 7.50874 59.2799 7.50124C59.2637 7.50124 59.2467 7.48999 59.2296 7.48436L59.1737 7.46655C59.1576 7.46561 59.1405 7.46561 59.1244 7.46655L59.0571 7.44592H31.9429C31.8756 7.44686 31.8111 7.45905 31.7486 7.48249C31.686 7.50592 31.6291 7.53874 31.5789 7.58186C31.5277 7.62499 31.486 7.67467 31.4528 7.73186C31.4196 7.78999 31.3969 7.85092 31.3855 7.91655L26.1852 36.9406C26.1511 36.9734 26.1208 37.01 26.0942 37.0503C25.1767 38.5269 24.4781 40.0981 23.9994 41.7659C23.5207 43.4328 23.2789 45.1325 23.2751 46.8659C23.2751 47.5981 23.3206 48.3275 23.4107 49.0531C22.841 48.7119 22.0628 48.4053 21.2807 48.7156C20.4494 49.0447 20.0996 49.8706 19.819 50.5353L19.7859 50.6169C19.6323 50.9834 19.3129 51.5937 18.9005 51.6134C18.674 51.6303 18.3896 51.4578 18.0919 51.2797C17.6464 51.0134 17.0909 50.6825 16.4208 50.8316C15.7278 50.9853 15.2027 51.6566 15.143 52.4609C15.1335 53.0047 15.2292 53.5306 15.4292 54.0387L15.4567 54.125C15.5913 54.4709 15.6539 54.829 15.6425 55.1994C15.3572 55.2237 15.0795 55.189 14.8093 55.0962C14.7164 55.0653 14.6235 55.0306 14.5287 54.995C14.0841 54.8319 13.5315 54.6275 12.9429 54.7878C12.1864 54.9931 11.6423 55.7572 11.6328 56.6469C11.6319 56.9665 11.6793 57.2797 11.7741 57.5853C11.7314 57.5525 11.6897 57.5187 11.6499 57.4822C11.303 57.1719 10.5816 56.5231 9.74079 56.8044C9.38911 56.9478 9.10379 57.1728 8.88482 57.4803C8.77107 57.6125 8.63173 57.7775 8.554 57.7906C8.47627 57.8037 8.25825 57.6256 8.09331 57.4803C7.82031 57.2375 7.48096 56.9291 7.01458 56.8615C6.825 56.8325 6.63731 56.8419 6.45247 56.8906C6.26668 56.9384 6.0989 57.0209 5.94818 57.139C5.74437 57.2984 5.58039 57.4916 5.45431 57.7165C5.32824 57.9416 5.25146 58.1815 5.22207 58.4375C5.19269 58.9203 5.24767 59.3937 5.38796 59.8569C5.42493 60.0078 5.4619 60.1587 5.48939 60.3087C5.58418 60.8084 5.51593 61.2106 5.30359 61.3887C5.09221 61.5669 4.77466 61.5725 4.4353 61.6034C3.97082 61.6353 3.3907 61.6756 2.912 62.03C2.74327 62.1612 2.60961 62.3206 2.51198 62.51C2.41529 62.6994 2.36221 62.9 2.35462 63.1119C2.35083 63.2094 2.35936 63.305 2.38117 63.4006H0.573489C0.497656 63.4006 0.424667 63.4147 0.354521 63.4437C0.284375 63.4719 0.221812 63.5131 0.167781 63.5666C0.114698 63.62 0.0729895 63.6809 0.0436043 63.7503C0.0142188 63.8197 0 63.8928 0 63.9678V67.9906C0 68.0656 0.0142188 68.1378 0.0436043 68.2072C0.0729895 68.2766 0.114698 68.3384 0.167781 68.3919C0.221812 68.4444 0.284375 68.4856 0.354521 68.5147C0.424667 68.5437 0.497656 68.5578 0.573489 68.5578H90.4265C90.5023 68.5578 90.5753 68.5437 90.6455 68.5147C90.7156 68.4856 90.7782 68.4444 90.8322 68.3919C90.8853 68.3384 90.927 68.2766 90.9564 68.2072C90.9858 68.1378 91 68.0656 91 67.9906V63.9678C91 63.8928 90.9858 63.8197 90.9564 63.7503C90.927 63.6809 90.8853 63.62 90.8322 63.5666C90.7782 63.5131 90.7156 63.4719 90.6455 63.4437C90.5753 63.4147 90.5023 63.4006 90.4265 63.4006ZM77.8789 56.7144C78.0467 56.7416 78.206 56.795 78.3557 56.8747C78.5065 56.9544 78.6392 57.0547 78.7558 57.1784C78.8714 57.3012 78.9652 57.439 79.0344 57.5928C79.1046 57.7456 79.1482 57.9059 79.1643 58.0737C79.1672 58.1178 79.1757 58.1619 79.189 58.205C79.2022 58.2472 79.2202 58.2875 79.243 58.3259C79.2657 58.3644 79.2932 58.4 79.3245 58.4319C79.3558 58.4637 79.3909 58.4919 79.4288 58.5162C79.4667 58.5406 79.5075 58.5594 79.5501 58.5744C79.5928 58.5884 79.6364 58.5978 79.6819 58.6025C79.7264 58.6062 79.771 58.6053 79.8165 58.5997C79.861 58.5931 79.9046 58.5819 79.9463 58.5659C80.5435 58.3391 81.1597 58.264 81.7938 58.3419C82.1825 58.4009 82.609 58.744 82.5626 59.0769C82.5389 59.1959 82.5038 59.3122 82.4574 59.4256C82.3436 59.7209 82.1901 60.1269 82.3436 60.5694C82.4356 60.7981 82.5778 60.9884 82.7711 61.1422C82.9645 61.2959 83.1835 61.3925 83.428 61.4309C83.6309 61.4703 83.8347 61.49 84.0413 61.4919C84.1418 61.4919 84.2423 61.4919 84.3418 61.5125C84.4527 61.5303 84.5608 61.5584 84.667 61.5959C84.7722 61.6344 84.8736 61.6812 84.9703 61.7375C85.0679 61.7928 85.1589 61.8575 85.2433 61.9306C85.3286 62.0028 85.4063 62.0825 85.4765 62.1697C85.5466 62.2559 85.6082 62.3487 85.6613 62.4462C85.7144 62.5437 85.759 62.6459 85.7931 62.7519C85.8272 62.8578 85.8519 62.9656 85.8661 63.0762C85.8803 63.1859 85.8841 63.2966 85.8784 63.4072H79.935C79.9928 63.2722 80.043 63.1344 80.0866 62.9937C80.1302 62.8531 80.1663 62.7106 80.1947 62.5662C80.2222 62.4219 80.243 62.2766 80.2563 62.1303C80.2696 61.9841 80.2753 61.8369 80.2724 61.6897C80.2705 61.5434 80.2601 61.3962 80.2421 61.2509C80.225 61.1047 80.1994 60.9603 80.1663 60.8169C80.134 60.6734 80.0933 60.5319 80.0459 60.3931C79.9975 60.2534 79.9426 60.1175 79.8809 59.9834C79.8184 59.8503 79.7501 59.72 79.6743 59.5934C79.5985 59.4669 79.516 59.345 79.4278 59.2269C79.3387 59.1087 79.2449 58.9953 79.1444 58.8875C79.0439 58.7787 78.9378 58.6765 78.8269 58.579C78.715 58.4815 78.5993 58.3897 78.478 58.3044C78.3576 58.2191 78.2325 58.1394 78.1036 58.0672C77.9737 57.994 77.841 57.9284 77.7055 57.8694C77.569 57.8103 77.4306 57.7587 77.2884 57.7137L76.4087 57.4362C76.4846 57.3144 76.5765 57.2047 76.6836 57.1081C76.7907 57.0116 76.9092 56.9319 77.04 56.8672C77.1699 56.8034 77.3054 56.7594 77.4486 56.7331C77.5917 56.7069 77.7349 56.7003 77.8789 56.7144ZM57.6883 36.8337L52.6463 8.58311H58.5594L63.6014 36.8337H57.6883ZM32.4188 8.58311H51.4804L56.5224 36.8337H27.3758L32.4188 8.58311ZM26.882 37.9709H63.9616C64.7617 39.319 65.3693 40.7469 65.7854 42.2544C66.2016 43.7619 66.411 45.2975 66.4148 46.8603C66.4148 51.1362 64.6309 54.9425 61.2544 57.8516C61.1966 57.9012 61.1511 57.9594 61.1179 58.0269C61.0837 58.0944 61.0648 58.1656 61.0601 58.2406C61.0544 58.3156 61.0648 58.3887 61.0885 58.46C61.1131 58.5312 61.1501 58.5959 61.2003 58.6522C61.2506 58.7094 61.3094 58.7544 61.3776 58.7872C61.4459 58.8209 61.5179 58.8406 61.5937 58.8453C61.6696 58.8509 61.7435 58.8415 61.8155 58.8172C61.8876 58.7937 61.953 58.7562 62.0099 58.7075C63.2459 57.6509 64.3048 56.4425 65.1854 55.0812L76.949 58.7881C77.1832 58.8603 77.4059 58.9597 77.6164 59.0844C77.8278 59.209 78.0202 59.3562 78.1955 59.5259C78.3718 59.6965 78.5245 59.884 78.6543 60.0903C78.7851 60.2956 78.8894 60.514 78.9671 60.7447C79.0136 60.8815 79.0506 61.0212 79.079 61.1628C78.9871 61.0203 78.8847 60.8844 78.7728 60.755C77.3168 59.0787 74.6029 58.9934 74.4882 58.9906C74.4124 58.9878 74.3385 59 74.2674 59.0262C74.1963 59.0534 74.1337 59.0928 74.0778 59.1444C74.0228 59.1959 73.9802 59.2559 73.9498 59.3253C73.9185 59.3937 73.9024 59.4659 73.9015 59.5409C73.8996 59.6169 73.9119 59.689 73.9394 59.7594C73.9659 59.8297 74.0057 59.8925 74.0579 59.9469C74.11 60.0012 74.1707 60.0444 74.2399 60.0753C74.31 60.1062 74.3821 60.1231 74.4589 60.125C74.4807 60.125 76.7812 60.2047 77.9017 61.4975C78.1254 61.7619 78.2894 62.0591 78.3946 62.389C78.4989 62.7181 78.5368 63.0547 78.5074 63.3987H52.89C53.8872 63.1241 54.8645 62.794 55.8238 62.4087C55.8949 62.3797 55.9574 62.3394 56.0114 62.2869C56.0655 62.2334 56.1081 62.1725 56.1375 62.1031C56.1669 62.0337 56.1821 61.9616 56.183 61.8856C56.183 61.8106 56.1698 61.7375 56.1404 61.6681C56.1119 61.5978 56.0712 61.5359 56.0171 61.4825C55.9631 61.4291 55.9015 61.3869 55.8313 61.3578C55.7612 61.3287 55.6873 61.3137 55.6114 61.3137C55.5356 61.3128 55.4617 61.3278 55.3915 61.3559C52.1582 62.66 48.4215 63.3762 44.5881 63.3987H35.2018L37.6531 62.9469C37.8939 62.9009 38.129 62.8344 38.3584 62.7491C38.5868 62.6628 38.8068 62.5587 39.0181 62.435C39.2286 62.3122 39.4276 62.1716 39.6134 62.014C39.8002 61.8575 39.9717 61.6859 40.1282 61.4994C40.2855 61.3128 40.4249 61.115 40.5462 60.905C40.6685 60.695 40.7718 60.4766 40.8562 60.2487C40.9396 60.0209 41.004 59.7884 41.0476 59.5494C41.0912 59.3112 41.114 59.0712 41.1149 58.8284L41.4012 58.849H44.8497C46.3152 58.7422 47.8309 58.6306 49.2812 58.1347C50.9714 57.5553 52.253 56.5194 52.9137 55.2134C53.7175 53.6103 53.4189 51.6566 52.2046 50.5709C51.1629 49.639 49.7173 49.489 48.5769 49.4684C48.3788 49.4684 48.1779 49.4684 47.9797 49.459C47.0318 49.459 46.137 49.4431 45.337 49.1366C44.7331 48.905 44.1521 48.3809 43.9606 47.7931C44.9967 47.5634 45.7379 46.9653 45.7379 46.2594C45.7379 45.3575 44.5246 44.6272 43.0297 44.6272C41.5349 44.6272 40.3225 45.3612 40.3225 46.2594C40.3225 47.0056 41.1491 47.6337 42.2799 47.8306C42.1529 48.1315 41.9709 48.3959 41.733 48.6228C41.496 48.8497 41.223 49.0203 40.9149 49.1366C40.1158 49.4431 39.221 49.4515 38.274 49.459C38.0731 49.459 37.875 49.459 37.6759 49.4684C36.5356 49.4947 35.0909 49.6522 34.0492 50.5709C32.8842 51.6115 32.5628 53.4472 33.2463 55.0119L27.3171 55.7797C27.3171 55.7769 27.3171 55.7731 27.3171 55.7703C25.4061 53.239 24.4363 50.2437 24.4363 46.864C24.4392 45.3022 24.6477 43.7665 25.0629 42.26C25.4772 40.7525 26.0838 39.3247 26.882 37.9765V37.9709ZM20.529 63.4006C20.3338 62.9009 19.1972 59.7069 20.7831 57.1109C21.6912 55.6231 23.4666 54.6959 24.953 54.1465C25.2677 54.7719 25.626 55.3728 26.026 55.9484L25.2629 56.0478C25.1899 56.0609 25.1226 56.0872 25.0601 56.1256C24.9975 56.1641 24.9444 56.2137 24.9008 56.2719C24.8572 56.3309 24.8269 56.3965 24.8079 56.4669C24.7899 56.5372 24.7861 56.6094 24.7956 56.6815C24.8051 56.7537 24.8278 56.8222 24.8639 56.8859C24.8999 56.9497 24.9463 57.0041 25.0032 57.05C25.061 57.0959 25.1245 57.1297 25.1956 57.1512C25.2658 57.1728 25.3378 57.1812 25.4117 57.1756L36.4673 55.7412C36.8417 55.6962 37.2133 55.7178 37.5802 55.8059C37.947 55.895 38.2873 56.044 38.5992 56.255L35.6853 56.7753C35.6151 56.7884 35.5507 56.8147 35.49 56.8522C35.4303 56.8897 35.3791 56.9356 35.3364 56.9919C35.2938 57.0481 35.2625 57.1109 35.2435 57.1784C35.2236 57.2459 35.2179 57.3144 35.2236 57.3847C35.2303 57.454 35.2492 57.5206 35.2805 57.5844C35.3118 57.6472 35.3535 57.7025 35.4047 57.7503C35.4568 57.7981 35.5156 57.8356 35.5819 57.8619C35.6474 57.8881 35.7166 57.9012 35.7867 57.9031C35.8208 57.9069 35.8549 57.9069 35.8891 57.9031L39.5404 57.2506C39.7556 57.6125 39.8902 58.0015 39.9433 58.4169C39.9547 58.4966 39.9604 58.5772 39.9642 58.6559L36.4 58.9925C36.327 59 36.2588 59.0215 36.1943 59.0553C36.1298 59.0891 36.0739 59.1331 36.0265 59.1884C35.9791 59.2437 35.9431 59.3056 35.9194 59.3741C35.8957 59.4416 35.8862 59.5119 35.8891 59.585C35.8929 59.6572 35.9099 59.7256 35.9393 59.7922C35.9696 59.8578 36.0104 59.9159 36.0635 59.9665C36.1156 60.0162 36.1753 60.0556 36.2426 60.0837C36.3109 60.1109 36.381 60.1259 36.454 60.1269H36.5119L39.8021 59.8091C39.713 60.065 39.5916 60.305 39.4381 60.529C39.2845 60.7541 39.1044 60.9547 38.8978 61.1319C38.6911 61.3091 38.4646 61.4572 38.2181 61.5753C37.9716 61.6934 37.7148 61.7787 37.4456 61.8294L28.9323 63.3987L20.529 63.4006ZM34.3686 54.7128C33.798 53.5719 33.997 52.1553 34.8198 51.4156C35.581 50.7341 36.7602 50.6225 37.7034 50.6H38.2835C39.293 50.6 40.3358 50.5812 41.3311 50.1997C41.7026 50.0572 42.042 49.8603 42.3491 49.6091C42.6562 49.3578 42.916 49.0644 43.1264 48.7306C43.3369 49.0653 43.5966 49.3578 43.9037 49.61C44.2108 49.8612 44.5502 50.0572 44.9227 50.1997C45.9161 50.5812 46.9655 50.5906 47.9684 50.6H48.5494C49.4926 50.6225 50.6718 50.7341 51.434 51.4156C52.2615 52.1506 52.4549 53.5719 51.8852 54.7128C51.1847 56.1087 49.7173 56.7847 48.9134 57.0612C47.6139 57.5075 46.1797 57.6125 44.7948 57.7156H43.8288C43.9122 57.5806 43.9691 57.4353 44.0004 57.2806C44.0317 57.125 44.0355 56.9694 44.0118 56.8128C43.9871 56.6562 43.9369 56.509 43.8601 56.3703C43.7833 56.2315 43.6847 56.1097 43.5653 56.0056C43.3596 55.85 43.1331 55.7375 42.8847 55.6672C42.8278 55.6475 42.77 55.6287 42.7141 55.6072C42.6648 55.5884 42.6193 55.5631 42.5766 55.5312C42.5766 55.5041 42.5956 55.4675 42.6051 55.4394C42.6307 55.3606 42.6553 55.2819 42.6733 55.2031C42.7141 54.9997 42.7112 54.7972 42.6657 54.5956C42.6193 54.3941 42.534 54.2103 42.4098 54.0434C42.2496 53.8287 42.0534 53.6525 41.8211 53.5165C41.5889 53.3806 41.3386 53.2953 41.0704 53.2597C40.5452 53.2015 40.0258 53.239 39.5149 53.3712C39.4542 53.1022 39.3499 52.8509 39.2011 52.6175C39.0532 52.384 38.8684 52.1825 38.6494 52.0128C38.5508 51.9434 38.4475 51.8825 38.3385 51.8319C38.2295 51.7803 38.1167 51.74 38.001 51.7081C37.8844 51.6772 37.7659 51.6566 37.6465 51.6462C37.5261 51.6359 37.4057 51.6359 37.2863 51.6462C37.1659 51.6575 37.0474 51.6781 36.9318 51.71C36.8152 51.7419 36.7024 51.7831 36.5943 51.8347C36.4853 51.8862 36.382 51.9462 36.2844 52.0165C36.1867 52.0859 36.0957 52.1637 36.0123 52.2491C35.4549 52.8481 35.5308 53.9131 35.8711 54.6734L34.4596 54.8572C34.4236 54.8075 34.3942 54.7606 34.3686 54.7128ZM37.1536 54.5928C37.1346 54.5572 37.1119 54.5234 37.0853 54.4925C36.7564 54.125 36.6559 53.2334 36.8531 53.0225C36.9261 52.9522 37.0095 52.8969 37.1015 52.8547C37.1944 52.8125 37.291 52.7872 37.3925 52.7778C37.4939 52.7694 37.5944 52.7769 37.693 52.8022C37.7915 52.8265 37.8825 52.8678 37.9679 52.9231C38.3385 53.195 38.4579 53.7556 38.4968 54.1794C38.5006 54.2244 38.5101 54.2684 38.5252 54.3106C38.5394 54.3528 38.5594 54.3931 38.583 54.4315C38.6077 54.4691 38.6361 54.5037 38.6684 54.5347C38.7015 54.5666 38.7366 54.5937 38.7755 54.6162C38.8153 54.6397 38.8561 54.6575 38.8997 54.6706C38.9433 54.6837 38.9869 54.6922 39.0324 54.695C39.0779 54.6978 39.1224 54.6959 39.1679 54.6884C39.2125 54.68 39.2551 54.6678 39.2968 54.65C39.8163 54.4203 40.3585 54.334 40.9244 54.3912C41.1491 54.4231 41.3292 54.529 41.4666 54.709C41.5311 54.784 41.5557 54.8712 41.5406 54.9697C41.5311 55.0109 41.5197 55.0512 41.5055 55.0906C41.4296 55.2828 41.3993 55.4806 41.4164 55.6859C41.4666 56.1125 41.788 56.4687 42.2818 56.6665C42.3558 56.6965 42.4297 56.7219 42.5065 56.7472C42.6183 56.7762 42.7226 56.8212 42.8202 56.8812C42.8468 56.9141 42.8601 56.9515 42.861 56.9937C42.8619 57.035 42.8487 57.0725 42.824 57.1062C42.7984 57.14 42.7653 57.1625 42.7245 57.1737C42.6837 57.185 42.6439 57.1822 42.6051 57.1662C42.4648 57.0781 42.3122 57.0228 42.1472 56.9994C41.9832 56.9769 41.8211 56.9881 41.6609 57.034C41.3766 57.1062 41.1121 57.2253 40.8704 57.3903C40.732 57.0059 40.5414 56.6497 40.2978 56.3215C40.2732 56.2831 40.2447 56.2475 40.2125 56.2147C40.0286 55.9812 39.822 55.7684 39.5926 55.5772C39.3632 55.3869 39.1167 55.2209 38.8523 55.0812C38.5878 54.9416 38.311 54.8309 38.0228 54.7484C37.7356 54.6659 37.4418 54.6144 37.1432 54.5928H37.1536ZM3.51582 63.1559C3.52056 63.0687 3.55564 62.9966 3.62294 62.9394C3.82958 62.7865 4.18031 62.7556 4.53483 62.7369C5.04197 62.7022 5.62115 62.6347 6.0733 62.2503C6.61172 61.7928 6.81552 61.0287 6.62973 60.1016C6.59655 59.9309 6.55579 59.7612 6.51503 59.5906C6.40981 59.2541 6.36242 58.909 6.37379 58.5565C6.39749 58.3494 6.49039 58.1787 6.65248 58.0447C6.70461 57.994 6.76623 57.9744 6.83827 57.9837C7.03259 58.0587 7.20132 58.1722 7.34351 58.3231C7.67339 58.6156 8.1227 59.014 8.7597 58.909C9.25925 58.8265 9.56258 58.4665 9.78345 58.204C9.87445 58.0719 9.9882 57.9641 10.1247 57.8787C10.3276 57.8094 10.7532 58.1928 10.8925 58.3194C11.4101 58.7862 12.2196 59.1519 12.9353 58.7825C12.9997 58.7497 13.0566 58.7056 13.1049 58.6512C13.1533 58.5969 13.1893 58.535 13.214 58.4665C13.2386 58.3991 13.249 58.3287 13.2471 58.2556C13.2443 58.1834 13.2282 58.1141 13.1988 58.0475C12.994 57.5891 12.7846 57.1128 12.794 56.659C12.794 56.3366 12.9798 55.9559 13.2585 55.8791C13.4889 55.8162 13.8045 55.9325 14.1382 56.0628C14.2462 56.1031 14.3524 56.1415 14.4576 56.1762C14.6434 56.239 15.6444 56.5437 16.2909 56.1669C16.4132 56.0994 16.5156 56.0094 16.599 55.8969C16.6814 55.7844 16.7364 55.6606 16.7649 55.5247C16.8928 54.9012 16.725 54.2975 16.5563 53.779L16.5288 53.6909C16.3791 53.3234 16.3013 52.9419 16.2966 52.5453C16.3165 52.2547 16.4824 51.9828 16.6786 51.9406C16.8758 51.8984 17.1734 52.0606 17.4976 52.2547C17.9099 52.5012 18.3782 52.7806 18.9574 52.7506C19.5034 52.7253 20.274 52.4094 20.8466 51.0575L20.8817 50.975C21.0987 50.4584 21.3234 49.924 21.7082 49.7712C22.1812 49.5875 22.8334 50.0084 23.35 50.3994C23.442 50.4687 23.5453 50.5081 23.66 50.5156C23.8515 51.4044 24.1216 52.2706 24.4676 53.1125C22.8182 53.7312 20.8542 54.7915 19.7953 56.525C18.1772 59.1687 18.9109 62.21 19.3034 63.4025H3.66939C3.64 63.3069 3.58881 63.2244 3.51582 63.1559ZM89.8502 67.4206H1.14982V64.5369H89.8502V67.4206Z" fill="#232323"/>
<path d="M17.381 60.0631C17.3128 60.0959 17.254 60.1409 17.2038 60.1981C17.1535 60.2544 17.1166 60.3181 17.0919 60.3894C17.0673 60.4616 17.0578 60.5347 17.0625 60.6097C17.0682 60.6847 17.0872 60.7559 17.1213 60.8234C17.1412 60.8628 17.144 60.9041 17.1308 60.9462C17.1175 60.9894 17.091 61.0212 17.0511 61.0419C17.0123 61.0634 16.9706 61.0681 16.927 61.0569C16.8834 61.0447 16.8502 61.0194 16.8274 60.9809C16.7914 60.9219 16.745 60.8703 16.69 60.8281C16.6341 60.785 16.5734 60.7531 16.5061 60.7325C16.4388 60.7119 16.3705 60.7044 16.3004 60.7081C16.2302 60.7128 16.1629 60.7287 16.0985 60.7578C16.035 60.7859 15.9781 60.8253 15.9279 60.8741C15.8786 60.9237 15.8388 60.98 15.8103 61.0428C15.7819 61.1066 15.7648 61.1731 15.761 61.2425C15.7563 61.3119 15.7648 61.3794 15.7857 61.4459C15.779 61.5266 15.7383 61.5828 15.6634 61.6147C15.5847 61.6325 15.507 61.6297 15.4302 61.6072C15.3534 61.5847 15.2861 61.5453 15.2302 61.4881C15.0605 61.3081 14.9667 61.0953 14.9477 60.8487C14.9392 60.7737 14.9155 60.7034 14.8785 60.6378C14.8406 60.5722 14.7923 60.5159 14.7325 60.47C14.6719 60.4231 14.6055 60.3903 14.5316 60.3697C14.4586 60.35 14.3837 60.3444 14.3079 60.3528C14.233 60.3622 14.1619 60.3856 14.0955 60.4222C14.0292 60.4597 13.9723 60.5075 13.9249 60.5675C13.8785 60.6266 13.8443 60.6931 13.8244 60.7653C13.8036 60.8384 13.7988 60.9116 13.8083 60.9866C13.832 61.2369 13.8993 61.4759 14.0074 61.7037C14.1154 61.9316 14.2595 62.135 14.4396 62.3131C14.5904 62.4575 14.7638 62.5681 14.9581 62.6469C15.1525 62.7256 15.3544 62.7659 15.5648 62.7687C15.7364 62.7687 15.9023 62.7387 16.0625 62.6806C16.3374 62.5794 16.5544 62.4069 16.7146 62.1641C17.0218 62.2278 17.3147 62.1875 17.5924 62.0412C17.6654 62 17.7346 61.9531 17.7991 61.8997C17.8626 61.8462 17.9213 61.7872 17.9744 61.7225C18.0275 61.6578 18.0739 61.5894 18.1138 61.5162C18.1536 61.4431 18.1867 61.3672 18.2123 61.2884C18.2379 61.2097 18.2559 61.1291 18.2664 61.0466C18.2768 60.9641 18.2787 60.8816 18.274 60.7981C18.2683 60.7156 18.255 60.6341 18.2341 60.5534C18.2133 60.4728 18.1858 60.395 18.1498 60.32C18.1157 60.2525 18.0702 60.1944 18.0133 60.1447C17.9555 60.0959 17.891 60.0584 17.819 60.035C17.7469 60.0106 17.673 60.0012 17.5971 60.0059C17.5213 60.0106 17.4493 60.0294 17.381 60.0631Z" fill="#232323"/>
<path d="M53.69 42.1935H52.1411L50.5088 46.5425H52.0596L53.69 42.1935Z" fill="white" fill-opacity="0.5"/>
<path d="M57.0921 42.1935H54.1953L52.5573 46.5425H55.1963C55.3204 46.5425 55.4427 46.5303 55.565 46.5069C55.6863 46.4825 55.8048 46.4478 55.9186 46.4C56.0333 46.3531 56.1423 46.296 56.2456 46.2275C56.3489 46.16 56.4437 46.0822 56.5319 45.996C56.6191 45.9088 56.6978 45.8141 56.7669 45.7128C56.8352 45.6106 56.894 45.5028 56.9414 45.3894C56.9888 45.276 57.0248 45.1597 57.0485 45.0388C57.0731 44.9188 57.0845 44.7969 57.0845 44.675L57.0921 42.1935Z" fill="white" fill-opacity="0.5"/>
<path d="M34.561 42.1935H33.0102L31.3798 46.5425H32.9306L34.561 42.1935Z" fill="white" fill-opacity="0.5"/>
<path d="M37.9641 42.1935H35.0663L33.4283 46.5425H36.0673C36.1915 46.5425 36.3147 46.5303 36.436 46.5069C36.5574 46.4825 36.6758 46.4478 36.7905 46.4C36.9052 46.3531 37.0133 46.296 37.1166 46.2275C37.22 46.16 37.3157 46.0822 37.4029 45.996C37.4911 45.9088 37.5688 45.8141 37.638 45.7128C37.7072 45.6106 37.765 45.5028 37.8124 45.3894C37.8598 45.276 37.8958 45.1597 37.9205 45.0388C37.9442 44.9188 37.9565 44.7969 37.9565 44.675L37.9641 42.1935Z" fill="white" fill-opacity="0.5"/>
</g>
<defs>
<clipPath id="clip0_2_53">
<rect width="91" height="90" fill="white" transform="translate(0 -7)"/>
</clipPath>
</defs>
</svg>
